<?xml version="1.0" encoding="UTF-8" standalone="no"?>
<!-- Created with Inkscape (http://www.inkscape.org/) -->

<svg
   xmlns:dc="http://purl.org/dc/elements/1.1/"
   xmlns:cc="http://creativecommons.org/ns#"
   xmlns:rdf="http://www.w3.org/1999/02/22-rdf-syntax-ns#"
   xmlns:svg="http://www.w3.org/2000/svg"
   xmlns="http://www.w3.org/2000/svg"
   xmlns:sodipodi="http://sodipodi.sourceforge.net/DTD/sodipodi-0.dtd"
   xmlns:inkscape="http://www.inkscape.org/namespaces/inkscape"
   width="100mm"
   height="100mm"
   viewBox="0 0 100 100"
   version="1.1"
   id="svg8"
   sodipodi:docname="Help.svg"
   inkscape:export-filename="/home/douwe/Documents/projects/LUDUM_DARE/LudumDare47/StuckInALoop/Art/restart.png"
   inkscape:export-xdpi="95"
   inkscape:export-ydpi="95"
   inkscape:version="0.92.5 (2060ec1f9f, 2020-04-08)">
  <defs
     id="defs2">
    <marker
       inkscape:stockid="Arrow2Sstart"
       orient="auto"
       refY="0.0"
       refX="0.0"
       id="Arrow2Sstart"
       style="overflow:visible"
       inkscape:isstock="true">
      <path
         id="path894"
         style="fill-rule:evenodd;stroke-width:0.62500000;stroke-linejoin:round"
         d="M 8.7185878,4.0337352 L -2.2072895,0.016013256 L 8.7185884,-4.0017078 C 6.9730900,-1.6296469 6.9831476,1.6157441 8.7185878,4.0337352 z "
         transform="scale(0.3) translate(-2.3,0)" />
    </marker>
  </defs>
  <sodipodi:namedview
     id="base"
     pagecolor="#ffffff"
     bordercolor="#666666"
     borderopacity="1.0"
     inkscape:pageopacity="0.0"
     inkscape:pageshadow="2"
     inkscape:zoom="1.1152188"
     inkscape:cx="235.26173"
     inkscape:cy="373.7849"
     inkscape:document-units="mm"
     inkscape:current-layer="layer1"
     showgrid="false"
     inkscape:window-width="1920"
     inkscape:window-height="1019"
     inkscape:window-x="1920"
     inkscape:window-y="25"
     inkscape:window-maximized="1" />
  <metadata
     id="metadata5">
    <rdf:RDF>
      <cc:Work
         rdf:about="">
        <dc:format>image/svg+xml</dc:format>
        <dc:type
           rdf:resource="http://purl.org/dc/dcmitype/StillImage" />
        <dc:title></dc:title>
      </cc:Work>
    </rdf:RDF>
  </metadata>
  <g
     inkscape:label="Layer 1"
     inkscape:groupmode="layer"
     id="layer1"
     transform="translate(0,-197)">
    <circle
       style="opacity:1;fill:#1a1a1a;fill-opacity:1;stroke:none;stroke-width:2.93448281;stroke-linecap:butt;stroke-linejoin:round;stroke-miterlimit:4;stroke-dasharray:11.73793159, 23.47586317;stroke-dashoffset:0;stroke-opacity:1"
       id="path845"
       cx="50"
       cy="247"
       r="50"
       inkscape:export-xdpi="95"
       inkscape:export-ydpi="95" />
    <ellipse
       style="opacity:1;fill:#ccff00;fill-opacity:1;stroke:none;stroke-width:2.7276485;stroke-linecap:butt;stroke-linejoin:round;stroke-miterlimit:4;stroke-dasharray:10.9105952, 21.82119043;stroke-dashoffset:0;stroke-opacity:1"
       id="path845-3"
       cx="50"
       cy="244"
       rx="48"
       ry="45"
       inkscape:export-xdpi="95"
       inkscape:export-ydpi="95" />
    <ellipse
       style="opacity:1;fill:#1a1a1a;fill-opacity:1;stroke:none;stroke-width:2.61020565;stroke-linecap:butt;stroke-linejoin:round;stroke-miterlimit:4;stroke-dasharray:10.44082258, 20.88164519;stroke-dashoffset:0;stroke-opacity:1"
       id="path845-3-6"
       cx="50"
       cy="244"
       rx="46"
       ry="43"
       inkscape:export-xdpi="95"
       inkscape:export-ydpi="95" />
    <g
       aria-label="?"
       transform="matrix(1.9757533,0,0,1.8207081,-126.35136,56.564614)"
       style="font-style:normal;font-variant:normal;font-weight:normal;font-stretch:normal;font-size:40px;line-height:1.25;font-family:Garuda;-inkscape-font-specification:Garuda;letter-spacing:0px;word-spacing:0px;fill:#333333;fill-opacity:1;stroke:none"
       id="flowRoot969-9">
      <path
         d="m 95.548203,95.978984 c 0,-1.52 -0.546667,-2.76 -1.64,-3.72 -1.066667,-0.96 -2.373333,-1.44 -3.92,-1.44 -3.2,0 -5.453573,2.076972 -6.040239,5.970305 l -3.279761,-0.570305 c 0.693333,-5.52 3.786667,-8.28 9.28,-8.28 2.64,0 4.826667,0.693333 6.56,2.08 1.733333,1.36 2.6,3.266667 2.6,5.72 0,0.906667 -0.253333,1.813333 -0.76,2.72 -0.48,0.906667 -1.026667,1.679996 -1.64,2.319996 -0.586667,0.61333 -1.266667,1.30667 -2.04,2.08 -0.773333,0.77333 -1.32,1.4 -1.64,1.88 -0.88,1.28 -1.333333,3.04 -1.36,5.28 h -3.56 v -1.64 c 0,-1.06667 0.2,-2.08 0.6,-3.04 0.426667,-0.98667 0.88,-1.73333 1.36,-2.24 0.08,-0.10667 0.693333,-0.66667 1.84,-1.68 1.146667,-1.04 2.04,-1.999996 2.68,-2.879996 0.64,-0.88 0.96,-1.733333 0.96,-2.56 z m -7.64,21.079996 c -0.905816,-0.98295 -0.905816,-3.01705 0,-4 0.905816,-0.98295 3.094184,-0.98295 4,0 0.905816,0.98295 0.905816,3.01705 0,4 -0.905816,0.98295 -3.094184,0.98295 -4,0 z"
         id="path977-6"
         inkscape:connector-curvature="0"
         sodipodi:nodetypes="scsccscsccscccscccsszzzzz"
         style="fill:#333333" />
    </g>
    <g
       aria-label="?"
       transform="matrix(1.9757533,0,0,1.8207081,-129.02158,54.224771)"
       style="font-style:normal;font-variant:normal;font-weight:normal;font-stretch:normal;font-size:40px;line-height:1.25;font-family:Garuda;-inkscape-font-specification:Garuda;letter-spacing:0px;word-spacing:0px;fill:#ccff00;fill-opacity:1;stroke:none"
       id="flowRoot969">
      <path
         d="m 95.548203,95.978984 c 0,-1.52 -0.546667,-2.76 -1.64,-3.72 -1.066667,-0.96 -2.373333,-1.44 -3.92,-1.44 -3.2,0 -5.453573,2.076972 -6.040239,5.970305 l -3.279761,-0.570305 c 0.693333,-5.52 3.786667,-8.28 9.28,-8.28 2.64,0 4.826667,0.693333 6.56,2.08 1.733333,1.36 2.6,3.266667 2.6,5.72 0,0.906667 -0.253333,1.813333 -0.76,2.72 -0.48,0.906667 -1.026667,1.679996 -1.64,2.319996 -0.586667,0.61333 -1.266667,1.30667 -2.04,2.08 -0.773333,0.77333 -1.32,1.4 -1.64,1.88 -0.88,1.28 -1.333333,3.04 -1.36,5.28 h -3.56 v -1.64 c 0,-1.06667 0.2,-2.08 0.6,-3.04 0.426667,-0.98667 0.88,-1.73333 1.36,-2.24 0.08,-0.10667 0.693333,-0.66667 1.84,-1.68 1.146667,-1.04 2.04,-1.999996 2.68,-2.879996 0.64,-0.88 0.96,-1.733333 0.96,-2.56 z m -7.64,21.079996 c -0.905816,-0.98295 -0.905816,-3.01705 0,-4 0.905816,-0.98295 3.094184,-0.98295 4,0 0.905816,0.98295 0.905816,3.01705 0,4 -0.905816,0.98295 -3.094184,0.98295 -4,0 z"
         id="path977"
         inkscape:connector-curvature="0"
         sodipodi:nodetypes="scsccscsccscccscccsszzzzz" />
    </g>
  </g>
  <g
     inkscape:groupmode="layer"
     id="layer2"
     inkscape:label="Layer 2" />
</svg>
